<svg width="27" height="34" fill="none" xmlns="http://www.w3.org/2000/svg"><path d="M13.357.016L13.5 0 27 1.407v24.606L13.5 34 0 26.013V1.407L13.357.016zm-11.591 25L13.5 31.956l11.734-6.942V14.93L13.55 21.845l-.02 1.253 8.018-4.743.01 1.225-8.046 4.809-.02 1.286 8.045-4.758.01 1.226L13.5 26.95l-8.124-4.833V16.91l-3.62-2.15.01 10.256zm0-11.564l3.22 1.88 1.481.875 7.066-4.187.011 1.225-6.04 3.573.053.031.13.076.86.492 4.986-2.948.011 1.225-3.936 2.328.933.61.021.012 2.971-1.742.011 1.225-1.947 1.135 1.988 1.186 11.618-6.872-11.638-6.958-11.8 6.834zm0-1.225L13.56 5.31l11.674 6.909V2.99L13.5 1.764 1.766 2.99v9.237z" fill="#666"/></svg>