<svg>

  <symbol id="logo-cat-mobile" viewBox="0 0 34 38" xmlns="http://www.w3.org/2000/svg">
    <g>
      <path
          d="M6.07 20.72v-2.26c6.68-.92 13.42-1.36 20.17-1.33 0 .6 0 1.21-.06 1.82a25.52 25.52 0 016-1.82A16.67 16.67 0 00.19 20.39l5.88.33zM27.24 24.23c-1.16 1.28-1.39 1.2-1.39 3.45v9.18A16.64 16.64 0 0033.32 23a17.3 17.3 0 00-.32-3.1c-2.07 1.23-4 2.68-5.76 4.33zM6.36 25.72s-3.79-1.44-5.19-1.83A8.54 8.54 0 000 23.61a16.65 16.65 0 008.68 14L6.36 25.72z"
          fill="#FDC305" />
      <path
          d="M26.29 17.12A89.8 89.8 0 0024.89.65S24.75-.64 24 .41c-.59 1.25-1 2.58-1.2 3.94a70.34 70.34 0 00-12.77.34C9.24 2 7.85.75 7.18 1c-.67.25-.72 3.31-.72 3.31l-.33 14.1c6.68-.9 13.42-1.34 20.16-1.29z"
          fill="#F06351" />
      <path
          d="M12.41 14c0-.09 1 .68 1.41.92.41.24.61.42.61.59 0 .17-.27.34-.63.34s-.91-.12-1-.27h1.23A8.34 8.34 0 0112.41 14zM19.89 14.11l-1.09 1.33c0 .06-.17.35.18.3.41-.06.82-.16 1.22-.29.11 0 .07-.19-.11-.17-.18.02-.69.05-1 .11l.84-1.26s.07-.13-.04-.02zM16.75 20.2c.46-.2.85-.56 1.09-1 .28-.65 0-.91-.44-1-.6-.11-1.22.01-1.74.34-.39.36-.34.72-.05 1 .35.27.73.49 1.14.66z"
          fill="#000" />
      <path
          d="M16.35 21.45c-.11.23-.27.43-.46.6-.28.23-.63.36-1 .38a2.15 2.15 0 01-1.47-.43 2.3 2.3 0 01-.53-.44c-.1-.11-.22-.2-.36-.26 0 0 .75 4.1 2.57 4.75 1.82.65 2.14-.75 2.2-1.13a5.61 5.61 0 00-.82-3.23c-.02-.31-.03-.11-.13-.24z"
          fill="#F06351" />
      <path
          d="M14.71 22.59a3.44 3.44 0 01-2.36-1.47.14.14 0 01.03-.15.14.14 0 01.2 0c.5.7 1.26 1.16 2.11 1.3a2.1 2.1 0 001.63-1l.14-.19.1.21s.37.76 1 .8c.63.04 1.05-.41 1.61-1.28a.14.14 0 01.2 0 .15.15 0 01.05.2c-.64 1-1.27 1.44-1.88 1.4a1.55 1.55 0 01-1.12-.76 2.26 2.26 0 01-1.71.94z"
          fill="#000" />
      <path
          d="M26.24 18.92a58.63 58.63 0 00-5.07 5.19A31.63 31.63 0 0115.88 29c-.22-.53-1.62-1.51-1.62-1.51s-3.13-2.14-5.18-3.82a34.14 34.14 0 01-3.13-3l-2-.11c2.89 4.2 7.12 7.3 12 8.8.86-.14 3.27-1.86 5.07-3.26a58.13 58.13 0 005.94-5.89c.5-.59.89-1.27 1.14-2-1.1.39-1.86.71-1.86.71z"
          fill="#F06351" />
  </g>
  </symbol>

  <symbol id="logo-text" viewBox="0 0 101 19" xmlns="http://www.w3.org/2000/svg">
    <g fill="#111">
        <path
            d="M1.26 17.35A6.86 6.86 0 010 13.05v-6.4c-.1-1.54.3-3.08 1.19-4.38.86-1 2.2-1.46 4.18-1.46 1.98 0 3.24.46 4.03 1.3a5.41 5.41 0 011.2 3.79v1.54H6.72V5.66a3.69 3.69 0 00-.24-1.53 1.12 1.12 0 00-1.11-.62c-.55 0-.94.15-1.1.54a4.84 4.84 0 00-.24 1.69v8.22a3.1 3.1 0 00.32 1.62c.15.38.55.54 1.1.54.56 0 .87-.16 1.03-.54.18-.52.26-1.07.24-1.62v-1.84h3.87v1.54A5.77 5.77 0 019.4 17.5c-.79.92-2.13 1.38-4.03 1.38-1.9-.07-3.32-.53-4.1-1.53zm13.99-16.3h4.5l3.33 17.53h-3.64l-.63-3.7h-2.6l-.64 3.7h-3.72l3.4-17.53zm3.24 11.53l-.95-6.84-.94 6.84h1.9zm7.35-8.61h-2.68V1.05h9.4V3.9h-2.69v14.68h-4.03V3.98zm13.91-2.92h6.96V2.9h-4.5v5.76h3.63v1.77H42.2v6.46h4.5v1.76h-7.03V1.05h.08zm9.01 0h1.74l5.14 11.6V1.06h2.05v17.53h-1.58l-5.21-12v12h-2.14V1.05zm11.3 0h6.96V2.9h-4.5v5.76h3.63v1.77H62.5v6.46H67v1.76h-6.95V1.05zm9.01 0h3.64c1.43-.1 2.85.29 4.03 1.08.87.7 1.26 1.92 1.26 3.53 0 2.23-.7 3.62-2.21 4.08l2.53 8.76h-2.45l-2.37-8.22h-1.98v8.22H69V1.05h.08zm3.48 7.54c.81.06 1.63-.16 2.3-.62.47-.38.7-1.15.7-2.3a4.84 4.84 0 00-.23-1.7 2.04 2.04 0 00-.87-.92 3.7 3.7 0 00-1.74-.3h-1.1V8.5h.94v.08zm8.61 8.68a7.6 7.6 0 01-1.1-4.46V6.97c-.02-1.11.11-2.22.4-3.3.26-.81.78-1.51 1.5-2 .88-.51 1.9-.75 2.92-.7 1.66 0 2.84.39 3.55 1.24a5.76 5.76 0 011.11 3.84v.61h-2.37v-.53c0-.65-.05-1.3-.16-1.93-.06-.4-.3-.76-.63-1a2.5 2.5 0 00-1.5-.38 2.42 2.42 0 00-1.58.46 1.74 1.74 0 00-.63 1.23c-.1.69-.16 1.38-.16 2.08v6.53c-.06 1 .1 2 .47 2.92.32.62.95.85 1.9.85a1.96 1.96 0 001.9-.93c.41-.97.6-2.02.55-3.07v-1.23h-2.3V9.89h4.59v8.69h-1.58l-.24-2c-.2.67-.64 1.25-1.22 1.66-.6.4-1.3.6-2.02.57a4.05 4.05 0 01-3.4-1.54zm13.52-4.84L90.8 1.13h2.37l2.76 8.46 2.69-8.46H101l-3.87 11.3v6.15h-2.37v-6.15h-.08z" />
    </g>
  </symbol>

  <symbol id="icon-link" viewBox="0 0 32 12" xmlns="http://www.w3.org/2000/svg">
    <line y1="6" x2="18" y2="6" stroke="black" stroke-width="2" />
    <path d="M24 6L17.25 11.1962L17.25 0.803848L24 6Z" fill="black" />
  </symbol>

  <symbol id="icon-vk" viewBox="0 0 23 16" xmlns="http://www.w3.org/2000/svg">
    <path
      d="M.07 3.993c0-.622.423-.957 1.27-1.006l3.26.018c.22 0 .365.091.438.274.336.915.711 1.704 1.127 2.369.416.664.96 1.43 1.63 2.295.059.11.154.165.285.165a.276.276 0 00.24-.128l.067-.201.021-3.165c0-.219-.062-.365-.186-.438-.124-.074-.353-.128-.689-.165-.263-.037-.394-.17-.394-.402 0-.05.007-.086.022-.11.306-.793 1.182-1.189 2.626-1.189l1.226-.018c.554 0 1.014.116 1.379.347.364.232.547.598.547 1.098v4.151a.562.562 0 00.284.092c.22 0 .409-.11.57-.33 1.604-1.877 2.472-3.133 2.604-3.767a.29.29 0 01.044-.092c.102-.182.27-.34.503-.475.233-.134.438-.226.613-.274a.507.507 0 01.197-.037h3.392l.219.018c.292 0 .518.116.678.348a.63.63 0 01.12.238c.022.085.037.17.044.256.008.085.011.134.011.146v.128c-.102.5-.36 1.033-.777 1.6-.415.567-.944 1.18-1.586 1.838-.642.659-1.044 1.092-1.204 1.299-.131.146-.197.28-.197.402 0 .098.058.208.175.33l3.195 3.365a.939.939 0 01.263.64c0 .28-.131.512-.394.695a1.826 1.826 0 01-.941.31l-.372.02h-3.327a.794.794 0 00-.087.008.802.802 0 01-.088.01c-.32 0-.62-.116-.897-.348-.102-.098-.788-.817-2.057-2.158a1.106 1.106 0 00-.307-.238c-.058.195-.135.475-.23.841-.094.366-.164.628-.207.787l-.066.31c-.146.427-.452.684-.92.769l-.306.018H9.743c-1.21 0-2.418-.463-3.622-1.39-1.203-.927-2.287-2.124-3.25-3.594-.963-1.469-1.86-3.18-2.691-5.13a1.254 1.254 0 01-.11-.53zM13.223 8.73a1.66 1.66 0 01-.831-.21c-.248-.14-.372-.333-.372-.577V3.737c0-.244-.073-.418-.22-.522-.145-.103-.4-.155-.765-.155l-1.248.036c-.627 0-1.101.092-1.422.275.642.256.963.67.963 1.243v3.22c-.03.304-.175.557-.438.758a1.405 1.405 0 01-.875.302c-.438 0-.774-.177-1.007-.53C5.87 6.925 5.024 5.559 4.469 4.267l-.197-.476-2.91-.018c-.19 0-.296.01-.318.028-.022.018-.033.07-.033.155 0 .11.015.226.044.348l.46 1.024c1.225 2.646 2.556 4.73 3.994 6.255 1.437 1.524 2.848 2.286 4.234 2.286h2.189c.088 0 .153-.021.197-.064.044-.043.08-.125.11-.247l.043-.183.416-1.61c.117-.219.219-.365.306-.438a.86.86 0 01.57-.201c.35 0 .707.176 1.072.53l1.86 1.975c.117.159.24.238.372.238h3.611c.438 0 .657-.091.657-.274a.312.312 0 00-.066-.183l-3.173-3.31c-.248-.257-.372-.531-.372-.824 0-.292.116-.573.35-.841.19-.244.558-.65 1.105-1.216a28.203 28.203 0 001.434-1.591c.408-.494.678-.942.81-1.345l.065-.237a.243.243 0 01-.022-.12c0-.054-.007-.1-.022-.137H17.82a1.199 1.199 0 00-.525.33l-.131.347c-.365.841-1.32 2.14-2.867 3.896a1.672 1.672 0 01-1.073.366z"/>
  </symbol>

  <symbol id="icon-insta" veiwBox="0 0 16 16" xmlns="http://www.w3.org/2000/svg">
    <path
      d="M7.984.063c1.334 0 2.422.015 3.266.046.719.032 1.36.157 1.922.375.541.209 1.01.51 1.406.907.396.395.698.864.906 1.406.22.562.344 1.203.375 1.922.032.843.047 1.932.047 3.265 0 1.334-.015 2.422-.047 3.266-.03.719-.156 1.36-.375 1.922a3.987 3.987 0 01-.906 1.406 3.987 3.987 0 01-1.406.906c-.563.22-1.203.344-1.922.375-.844.032-1.932.047-3.266.047a91.88 91.88 0 01-3.265-.047c-.719-.03-1.36-.156-1.922-.375a3.987 3.987 0 01-1.406-.906 3.987 3.987 0 01-.907-1.406C.266 12.609.141 11.969.11 11.25a91.735 91.735 0 01-.046-3.266c0-1.333.015-2.421.046-3.265.032-.719.157-1.36.375-1.922.209-.542.51-1.01.907-1.406A3.987 3.987 0 012.797.484C3.359.266 4 .141 4.719.11A91.733 91.733 0 017.984.063zm0 1.03c-1.385 0-2.515.016-3.39.048-.563.02-1.084.12-1.563.296a2.853 2.853 0 00-1.594 1.594c-.177.48-.276 1-.296 1.563a98.83 98.83 0 00-.047 3.39c0 1.386.015 2.516.047 3.391.02.563.12 1.083.296 1.563.313.75.844 1.28 1.594 1.593.48.177 1 .276 1.563.297.875.031 2.005.047 3.39.047 1.386 0 2.516-.016 3.391-.047a5.015 5.015 0 001.563-.297 2.852 2.852 0 001.593-1.594c.177-.479.276-1 .297-1.562.031-.875.047-2.005.047-3.39 0-1.386-.016-2.516-.047-3.391a5.015 5.015 0 00-.297-1.563 2.853 2.853 0 00-1.594-1.594c-.479-.177-1-.276-1.562-.296a98.803 98.803 0 00-3.39-.047zm0 10.063c.875 0 1.623-.31 2.243-.93.62-.62.93-1.367.93-2.242s-.31-1.622-.93-2.242a3.056 3.056 0 00-2.243-.93c-.875 0-1.622.31-2.242.93-.62.62-.93 1.367-.93 2.242s.31 1.623.93 2.243c.62.62 1.367.93 2.242.93zm0-7.234c1.125 0 2.084.396 2.875 1.187.792.792 1.188 1.75 1.188 2.875s-.396 2.084-1.188 2.875c-.791.792-1.75 1.188-2.875 1.188s-2.083-.396-2.875-1.188c-.791-.791-1.187-1.75-1.187-2.875s.396-2.083 1.187-2.875c.792-.791 1.75-1.187 2.875-1.187zm5.188-.156c0 .26-.094.481-.281.664a.949.949 0 01-.688.273.904.904 0 01-.664-.273.904.904 0 01-.273-.664c0-.271.09-.5.273-.688a.891.891 0 01.664-.281.93.93 0 01.68.289.93.93 0 01.289.68z"/>
  </symbol>

  <symbol id="icon-fb" veiwBox="0 0 22 22" xmlns="http://www.w3.org/2000/svg">
    <path
      d="M16.5 1.833h-2.75a4.63 4.63 0 00-3.24 1.317 4.45 4.45 0 00-1.343 3.177v2.697h-2.75v3.595h2.75v7.191h3.666v-7.19h2.75l.917-3.596h-3.667V6.327a.89.89 0 01.269-.635.926.926 0 01.648-.263h2.75V1.833z"
      stroke-width="1.1" stroke-linecap="round" stroke-linejoin="round" />
  </symbol>

  <symbol id="logo-academy" viewBox="0 0 60 60" xmlns="http://www.w3.org/2000/svg">
    <path
      d="M30.2 5h-.2l-19.7 2.1v36.2l19.7 11.7 19.7-11.7v-36.2l-19.5-2.1zm17 36.8l-17.2 10.2-17.2-10.2v-14.8l17.1 10.2v1.8l-11.7-7v1.8l11.8 7.1v1.9l-11.8-7v1.8l11.8 7 11.9-7.1v-7.6l5.3-3.2v15.1zm-.1-17l-4.7 2.8-2.2 1.3-10.3-6.1v1.8l8.8 5.3h-.1l-.2.1-1.3.7-7.3-4.3v1.8l5.8 3.4-1.4.9-4.3-2.6v1.8l2.9 1.7-2.9 1.7-17-10.1 17-10.2 17.2 10zm.1-1.8l-17.3-10.2-17.1 10.2v-13.6l17.2-1.8 17.2 1.8v13.6z" />
  </symbol>
</svg>
