<svg>

  <symbol id="logo-text" viewBox="0 0 101 19" xmlns="http://www.w3.org/2000/svg">
    <g fill="#111">
      <path
          d="M1.26 17.35A6.86 6.86 0 010 13.05v-6.4c-.1-1.54.3-3.08 1.19-4.38.86-1 2.2-1.46 4.18-1.46 1.98 0 3.24.46 4.03 1.3a5.41 5.41 0 011.2 3.79v1.54H6.72V5.66a3.69 3.69 0 00-.24-1.53 1.12 1.12 0 00-1.11-.62c-.55 0-.94.15-1.1.54a4.84 4.84 0 00-.24 1.69v8.22a3.1 3.1 0 00.32 1.62c.15.38.55.54 1.1.54.56 0 .87-.16 1.03-.54.18-.52.26-1.07.24-1.62v-1.84h3.87v1.54A5.77 5.77 0 019.4 17.5c-.79.92-2.13 1.38-4.03 1.38-1.9-.07-3.32-.53-4.1-1.53zm13.99-16.3h4.5l3.33 17.53h-3.64l-.63-3.7h-2.6l-.64 3.7h-3.72l3.4-17.53zm3.24 11.53l-.95-6.84-.94 6.84h1.9zm7.35-8.61h-2.68V1.05h9.4V3.9h-2.69v14.68h-4.03V3.98zm13.91-2.92h6.96V2.9h-4.5v5.76h3.63v1.77H42.2v6.46h4.5v1.76h-7.03V1.05h.08zm9.01 0h1.74l5.14 11.6V1.06h2.05v17.53h-1.58l-5.21-12v12h-2.14V1.05zm11.3 0h6.96V2.9h-4.5v5.76h3.63v1.77H62.5v6.46H67v1.76h-6.95V1.05zm9.01 0h3.64c1.43-.1 2.85.29 4.03 1.08.87.7 1.26 1.92 1.26 3.53 0 2.23-.7 3.62-2.21 4.08l2.53 8.76h-2.45l-2.37-8.22h-1.98v8.22H69V1.05h.08zm3.48 7.54c.81.06 1.63-.16 2.3-.62.47-.38.7-1.15.7-2.3a4.84 4.84 0 00-.23-1.7 2.04 2.04 0 00-.87-.92 3.7 3.7 0 00-1.74-.3h-1.1V8.5h.94v.08zm8.61 8.68a7.6 7.6 0 01-1.1-4.46V6.97c-.02-1.11.11-2.22.4-3.3.26-.81.78-1.51 1.5-2 .88-.51 1.9-.75 2.92-.7 1.66 0 2.84.39 3.55 1.24a5.76 5.76 0 011.11 3.84v.61h-2.37v-.53c0-.65-.05-1.3-.16-1.93-.06-.4-.3-.76-.63-1a2.5 2.5 0 00-1.5-.38 2.42 2.42 0 00-1.58.46 1.74 1.74 0 00-.63 1.23c-.1.69-.16 1.38-.16 2.08v6.53c-.06 1 .1 2 .47 2.92.32.62.95.85 1.9.85a1.96 1.96 0 001.9-.93c.41-.97.6-2.02.55-3.07v-1.23h-2.3V9.89h4.59v8.69h-1.58l-.24-2c-.2.67-.64 1.25-1.22 1.66-.6.4-1.3.6-2.02.57a4.05 4.05 0 01-3.4-1.54zm13.52-4.84L90.8 1.13h2.37l2.76 8.46 2.69-8.46H101l-3.87 11.3v6.15h-2.37v-6.15h-.08z" />
    </g>
  </symbol>

  <symbol id="icon-link" viewBox="0 0 32 12" xmlns="http://www.w3.org/2000/svg">
    <line y1="6" x2="18" y2="6" stroke="black" stroke-width="2" />
    <path d="M24 6L17.25 11.1962L17.25 0.803848L24 6Z" fill="black" />
  </symbol>

  <symbol id="icon-vk" viewBox="0 0 28 22" xmlns="http://www.w3.org/2000/svg">
    <path d="M.09 5.49c0-.86.51-1.32 1.54-1.38l3.97.02c.27 0 .44.13.53.38.41 1.26.87 2.34 1.38 3.26.5.9 1.16 1.96 1.98 3.15.07.15.19.23.35.23.12 0 .22-.06.29-.18l.08-.27.03-4.36c0-.3-.08-.5-.23-.6-.15-.1-.43-.17-.84-.22-.32-.06-.48-.24-.48-.56 0-.07.01-.12.03-.15.37-1.09 1.44-1.63 3.2-1.63l1.49-.03c.67 0 1.23.16 1.68.48.44.32.66.82.66 1.5v5.72c.13.08.24.12.35.12.26 0 .5-.15.7-.45 1.94-2.58 3-4.3 3.16-5.18l.05-.13c.13-.25.33-.47.62-.65.28-.19.53-.31.74-.38a.55.55 0 01.24-.05h4.13l.27.03c.35 0 .63.16.83.47.07.1.11.21.14.33a2.42 2.42 0 01.07.56v.17a6.1 6.1 0 01-.95 2.2c-.5.78-1.15 1.62-1.93 2.53-.78.9-1.27 1.5-1.46 1.78-.16.2-.24.39-.24.56 0 .13.07.28.2.45l3.9 4.63c.21.27.32.56.32.88 0 .38-.16.7-.48.95-.32.25-.7.4-1.15.43l-.45.03H20.66a.86.86 0 01-.11.02c-.4 0-.76-.16-1.1-.48l-2.5-2.96a1.38 1.38 0 00-.37-.33 38.47 38.47 0 00-.54 2.24l-.08.42a1.4 1.4 0 01-1.11 1.06l-.38.03h-2.6c-1.48 0-2.95-.64-4.42-1.92a19.3 19.3 0 01-3.95-4.94A47.52 47.52 0 01.22 6.22a1.92 1.92 0 01-.13-.73zm16 6.51c-.37 0-.7-.1-1-.29a.9.9 0 01-.46-.79V5.14c0-.34-.09-.58-.26-.72-.18-.14-.5-.21-.94-.21l-1.52.05c-.76 0-1.34.12-1.73.37.78.36 1.18.93 1.18 1.71v4.43a1.5 1.5 0 01-.54 1.04c-.32.28-.67.42-1.06.42-.54 0-.94-.24-1.23-.73a26.16 26.16 0 01-3.09-5.63L5.2 5.2 1.66 5.2c-.23 0-.36.01-.39.04-.03.02-.04.1-.04.21 0 .15.02.31.05.48l.56 1.4c1.5 3.64 3.12 6.51 4.87 8.6 1.75 2.1 3.46 3.15 5.15 3.15h2.67c.1 0 .18-.03.24-.09.05-.06.1-.17.13-.34l.05-.25.5-2.21c.15-.3.27-.5.38-.6.2-.19.43-.28.7-.28.42 0 .86.24 1.3.73l2.26 2.71c.15.22.3.33.46.33h4.4c.53 0 .8-.13.8-.38a.47.47 0 00-.09-.25L21.8 13.9c-.3-.35-.45-.73-.45-1.13 0-.4.14-.79.42-1.16.23-.33.68-.9 1.35-1.67.66-.78 1.25-1.51 1.74-2.19.5-.68.83-1.3.99-1.85l.08-.32a.37.37 0 01-.03-.17c0-.07 0-.14-.02-.19h-4.19c-.26.1-.48.25-.64.46l-.16.47c-.44 1.16-1.6 2.95-3.49 5.36-.37.34-.8.5-1.3.5z"/>
  </symbol>

  <symbol id="icon-insta" veiwBox="0 0 20 20" xmlns="http://www.w3.org/2000/svg">
    <path d="M9.98.08c1.67 0 3.03.02 4.08.06.9.04 1.7.2 2.4.47a4.98 4.98 0 012.9 2.89c.27.7.43 1.5.46 2.4.04 1.05.06 2.41.06 4.08s-.02 3.03-.06 4.08c-.03.9-.2 1.7-.46 2.4a4.99 4.99 0 01-2.9 2.9c-.7.27-1.5.43-2.4.46-1.05.04-2.41.06-4.08.06s-3.03-.02-4.08-.06a7.5 7.5 0 01-2.4-.46 4.98 4.98 0 01-2.9-2.9 7.5 7.5 0 01-.46-2.4C.1 13.01.08 11.65.08 9.98S.1 6.95.14 5.9c.04-.9.2-1.7.47-2.4A4.98 4.98 0 013.5.6 7.5 7.5 0 015.9.15C6.95.1 8.3.08 9.98.08zm0 1.29c-1.73 0-3.14.02-4.24.06-.7.02-1.35.15-1.95.37-.94.39-1.6 1.05-2 1.99-.21.6-.34 1.25-.36 1.95-.04 1.1-.06 2.5-.06 4.24 0 1.73.02 3.14.06 4.24.02.7.15 1.35.37 1.95.39.94 1.05 1.6 1.99 2 .6.22 1.25.34 1.95.37 1.1.03 2.5.05 4.24.05 1.73 0 3.14-.02 4.24-.05.7-.03 1.35-.15 1.95-.38.94-.39 1.6-1.05 2-1.99.22-.6.34-1.25.37-1.95.03-1.1.05-2.5.05-4.24 0-1.73-.02-3.14-.05-4.24a6.27 6.27 0 00-.38-1.95 3.57 3.57 0 00-1.99-2 6.27 6.27 0 00-1.95-.36c-1.1-.04-2.5-.06-4.24-.06zm0 12.58c1.1 0 2.03-.4 2.8-1.17a3.82 3.82 0 001.17-2.8c0-1.1-.4-2.03-1.17-2.8a3.82 3.82 0 00-2.8-1.16c-1.1 0-2.03.38-2.8 1.16a3.82 3.82 0 00-1.16 2.8c0 1.1.38 2.03 1.16 2.8.77.78 1.7 1.17 2.8 1.17zm0-9.05c1.4 0 2.6.5 3.6 1.49a4.9 4.9 0 011.48 3.59c0 1.4-.5 2.6-1.49 3.6a4.9 4.9 0 01-3.59 1.48c-1.4 0-2.6-.5-3.6-1.49A4.9 4.9 0 014.9 9.98c0-1.4.5-2.6 1.49-3.6A4.9 4.9 0 019.98 4.9zm6.48-.2a1.19 1.19 0 01-1.21 1.17c-.32 0-.6-.1-.83-.33-.22-.23-.34-.5-.34-.83a1.19 1.19 0 011.17-1.21c.33 0 .61.12.85.36s.36.52.36.85z"/>
  </symbol>

  <symbol id="icon-fb" veiwBox="0 0 22 22" xmlns="http://www.w3.org/2000/svg">
    <path d="M16.5 1.83h-2.75c-1.22 0-2.38.48-3.24 1.32a4.45 4.45 0 00-1.34 3.18v2.7H6.42v3.59h2.75v7.19h3.66v-7.2h2.75l.92-3.59h-3.67v-2.7c0-.23.1-.46.27-.63.17-.17.4-.26.65-.26h2.75v-3.6z" stroke-width="1.1" stroke-linecap="round" stroke-linejoin="round"/>
  </symbol>

  <symbol id="logo-academy" viewBox="0 0 27 34" xmlns="http://www.w3.org/2000/svg">
    <path d="M13.64.02L13.5 0 0 1.4v24.61L13.5 34 27 26.01V1.41L13.64 0zm11.6 25L13.5 31.96 1.77 25.02v-10.1l11.68 6.93.02 1.25-8.02-4.75v1.23l8.04 4.8.02 1.3-8.05-4.76v1.22l8.04 4.81 8.12-4.83V16.9l3.62-2.15v10.26zm0-11.57L22 15.33l-1.48.88-7.06-4.19-.01 1.23 6.04 3.57-.06.03-.13.07-.86.5-4.98-2.95-.01 1.22 3.93 2.33-.93.61-.02.01-2.97-1.74-.01 1.23 1.94 1.13-1.98 1.19L1.8 13.58l11.63-6.96 11.8 6.83zm0-1.22L13.43 5.3 1.77 12.22V2.99L13.5 1.76 25.23 3v9.24z"/>
  </symbol>

  <symbol id="icon-email" viewBox="0 0 19 14" xmlns="http://www.w3.org/2000/svg">
<line x1="0.65" y1="5.84766" x2="0.65" y2="13.8477" stroke="#222222" stroke-width="1.3"/>
<line x1="17.65" y1="5.84766" x2="17.65" y2="13.8477" stroke="#222222" stroke-width="1.3"/>
<line y1="13.1977" x2="18" y2="13.1977" stroke="#222222" stroke-width="1.3"/>
<line y1="1.19766" x2="18" y2="1.19766" stroke="#222222" stroke-width="1.3"/>
<path d="M17.35 3.02975L9.00002 9.5242L0.65 3.02975V1.49766H3.5L9.00002 1.49766H14H17.35V3.02975Z" stroke="#222222" stroke-width="1.3"/>
</symbol>

<symbol id="icon-phone" viewBox="0 0 20 21" xmlns="http://www.w3.org/2000/svg">
<g>
<path d="M17.9 9.75H9.4v1.2h8.5l-2.1 2.11.9.9 3.1-3.1a.75.75 0 000-.9l-3.1-3.12-.9.9 2.1 2.01zM8.1 19.79v-6.22a.65.65 0 00-.6-.6H3.1a1.23 1.23 0 001.2 1.2h2.5v5.02H3.1a1.78 1.78 0 01-1.9-1.71V3.43a1.78 1.78 0 011.7-1.8h3.9v5.01H4.4a1.22 1.22 0 00-1.2 1.2h4.4a.65.65 0 00.6-.6V.92a.86.86 0 00-.7-.6H3.1A3 3 0 000 3.23v13.95a2.9 2.9 0 002.9 3.1h4.6a.5.5 0 00.6-.5z"/>
</g>
</symbol>

</svg>
